<mxfile host="app.diagrams.net" modified="2024-02-15T16:12:16.760Z" agent="Mozilla/5.0 (Windows NT 10.0; Win64; x64) AppleWebKit/537.36 (KHTML, like Gecko) Chrome/121.0.0.0 Safari/537.36" etag="7speAHtoQoyWV_jAIlKY" version="23.1.4" type="github">
  <diagram name="Page-1" id="C82FcZfzY7iIoF4U9zA_">
    <mxGraphModel dx="1434" dy="772" grid="1" gridSize="10" guides="1" tooltips="1" connect="1" arrows="1" fold="1" page="1" pageScale="1" pageWidth="850" pageHeight="1100" math="0" shadow="0">
      <root>
        <mxCell id="0" />
        <mxCell id="1" parent="0" />
        <mxCell id="pfZgsWfrIliCGbdNdIW--1" value="" style="whiteSpace=wrap;html=1;aspect=fixed;" vertex="1" parent="1">
          <mxGeometry x="20" y="20" width="530" height="530" as="geometry" />
        </mxCell>
        <mxCell id="pfZgsWfrIliCGbdNdIW--17" value="" style="rounded=1;whiteSpace=wrap;html=1;" vertex="1" parent="1">
          <mxGeometry x="30" y="290" width="510" height="252.5" as="geometry" />
        </mxCell>
        <mxCell id="pfZgsWfrIliCGbdNdIW--2" value="VPC:&lt;br&gt;10.0.0.0/16" style="text;html=1;align=center;verticalAlign=middle;resizable=0;points=[];autosize=1;strokeColor=none;fillColor=none;" vertex="1" parent="1">
          <mxGeometry x="20" y="20" width="80" height="40" as="geometry" />
        </mxCell>
        <mxCell id="pfZgsWfrIliCGbdNdIW--3" value="" style="whiteSpace=wrap;html=1;aspect=fixed;" vertex="1" parent="1">
          <mxGeometry x="320" y="323.75" width="185" height="185" as="geometry" />
        </mxCell>
        <mxCell id="pfZgsWfrIliCGbdNdIW--4" value="Subnet east-2a:&lt;br&gt;10.0.10.0/24&lt;br&gt;Public" style="text;html=1;align=center;verticalAlign=middle;resizable=0;points=[];autosize=1;strokeColor=none;fillColor=none;" vertex="1" parent="1">
          <mxGeometry x="395" y="323.75" width="110" height="60" as="geometry" />
        </mxCell>
        <mxCell id="pfZgsWfrIliCGbdNdIW--5" value="" style="whiteSpace=wrap;html=1;aspect=fixed;" vertex="1" parent="1">
          <mxGeometry x="50" y="323.75" width="185" height="185" as="geometry" />
        </mxCell>
        <mxCell id="pfZgsWfrIliCGbdNdIW--6" value="Subnet east-2b:&lt;br&gt;10.0.20.0/24&lt;br&gt;Public" style="text;html=1;align=center;verticalAlign=middle;resizable=0;points=[];autosize=1;strokeColor=none;fillColor=none;" vertex="1" parent="1">
          <mxGeometry x="50" y="323.75" width="110" height="60" as="geometry" />
        </mxCell>
        <mxCell id="pfZgsWfrIliCGbdNdIW--8" value="Internet Gateway&lt;br&gt;" style="text;html=1;align=center;verticalAlign=middle;resizable=0;points=[];autosize=1;strokeColor=none;fillColor=none;" vertex="1" parent="1">
          <mxGeometry x="440" y="20" width="110" height="30" as="geometry" />
        </mxCell>
        <mxCell id="pfZgsWfrIliCGbdNdIW--9" value="Application Load Balancer" style="rounded=1;whiteSpace=wrap;html=1;" vertex="1" parent="1">
          <mxGeometry x="205" y="150" width="120" height="60" as="geometry" />
        </mxCell>
        <mxCell id="pfZgsWfrIliCGbdNdIW--11" value="" style="endArrow=classic;startArrow=classic;html=1;rounded=0;exitX=-0.012;exitY=-0.125;exitDx=0;exitDy=0;exitPerimeter=0;" edge="1" parent="1" source="pfZgsWfrIliCGbdNdIW--18">
          <mxGeometry width="50" height="50" relative="1" as="geometry">
            <mxPoint x="240" y="220" as="sourcePoint" />
            <mxPoint x="260" y="210" as="targetPoint" />
          </mxGeometry>
        </mxCell>
        <mxCell id="pfZgsWfrIliCGbdNdIW--12" value="" style="endArrow=classic;startArrow=classic;html=1;rounded=0;entryX=0.5;entryY=1;entryDx=0;entryDy=0;exitX=0.931;exitY=-0.158;exitDx=0;exitDy=0;exitPerimeter=0;" edge="1" parent="1" source="pfZgsWfrIliCGbdNdIW--18" target="pfZgsWfrIliCGbdNdIW--9">
          <mxGeometry width="50" height="50" relative="1" as="geometry">
            <mxPoint x="330" y="340" as="sourcePoint" />
            <mxPoint x="269" y="223" as="targetPoint" />
          </mxGeometry>
        </mxCell>
        <mxCell id="pfZgsWfrIliCGbdNdIW--13" value="" style="whiteSpace=wrap;html=1;shape=mxgraph.basic.cloud_callout" vertex="1" parent="1">
          <mxGeometry x="450" y="50" width="90" height="60" as="geometry" />
        </mxCell>
        <mxCell id="pfZgsWfrIliCGbdNdIW--15" value="" style="endArrow=classic;startArrow=classic;html=1;rounded=0;entryX=0.01;entryY=0.995;entryDx=0;entryDy=0;entryPerimeter=0;" edge="1" parent="1" target="pfZgsWfrIliCGbdNdIW--13">
          <mxGeometry width="50" height="50" relative="1" as="geometry">
            <mxPoint x="330" y="160" as="sourcePoint" />
            <mxPoint x="460" y="230" as="targetPoint" />
          </mxGeometry>
        </mxCell>
        <mxCell id="pfZgsWfrIliCGbdNdIW--18" value="Web Server Target Group" style="text;html=1;align=center;verticalAlign=middle;resizable=0;points=[];autosize=1;strokeColor=none;fillColor=none;" vertex="1" parent="1">
          <mxGeometry x="185" y="293.75" width="160" height="30" as="geometry" />
        </mxCell>
        <mxCell id="pfZgsWfrIliCGbdNdIW--20" value="EC2 Web Server" style="rounded=1;whiteSpace=wrap;html=1;rotation=0;" vertex="1" parent="1">
          <mxGeometry x="450" y="425" width="40" height="72.5" as="geometry" />
        </mxCell>
        <mxCell id="pfZgsWfrIliCGbdNdIW--21" value="EC2 Web Server" style="rounded=1;whiteSpace=wrap;html=1;rotation=0;" vertex="1" parent="1">
          <mxGeometry x="70" y="425" width="40" height="72.5" as="geometry" />
        </mxCell>
        <mxCell id="pfZgsWfrIliCGbdNdIW--23" value="" style="endArrow=none;dashed=1;html=1;dashPattern=1 3;strokeWidth=2;rounded=0;exitX=1.004;exitY=0.098;exitDx=0;exitDy=0;exitPerimeter=0;" edge="1" parent="1" source="pfZgsWfrIliCGbdNdIW--1">
          <mxGeometry width="50" height="50" relative="1" as="geometry">
            <mxPoint x="410" y="280" as="sourcePoint" />
            <mxPoint x="660" y="72" as="targetPoint" />
          </mxGeometry>
        </mxCell>
        <mxCell id="pfZgsWfrIliCGbdNdIW--24" value="Internet" style="ellipse;shape=cloud;whiteSpace=wrap;html=1;" vertex="1" parent="1">
          <mxGeometry x="660" y="30" width="120" height="80" as="geometry" />
        </mxCell>
      </root>
    </mxGraphModel>
  </diagram>
</mxfile>
